HIERARCHY
ROOT mixamorig:Hips
{
	OFFSET 0.000000 201.639420 0.000000
	CHANNELS 6 Xposition Yposition Zposition Xrotation Yrotation Zrotation
	JOINT mixamorig:Spine
	{
		OFFSET 0.006200 19.524994 -2.481800
		CHANNELS 3 Xrotation Yrotation Zrotation
		JOINT mixamorig:Spine1
		{
			OFFSET -0.000900 22.835007 -2.825400
			CHANNELS 3 Xrotation Yrotation Zrotation
			JOINT mixamorig:Spine2
			{
				OFFSET -0.020600 26.552490 -3.193300
				CHANNELS 3 Xrotation Yrotation Zrotation
				JOINT mixamorig:Neck
				{
					OFFSET -0.060000 30.701813 1.352200
					CHANNELS 3 Xrotation Yrotation Zrotation
					JOINT mixamorig:Head
					{
						OFFSET -0.087200 22.547607 3.670900
						CHANNELS 3 Xrotation Yrotation Zrotation
						JOINT mixamorig:HeadTop_End
						{
							OFFSET -0.830600 40.355194 7.893500
							CHANNELS 3 Xrotation Yrotation Zrotation
							End Site
							{
								OFFSET 0.000000 30.592346 0.000000
							}
						}
						JOINT mixamorig:RightEye
						{
							OFFSET -6.302100 18.118591 16.197100
							CHANNELS 3 Xrotation Yrotation Zrotation
							End Site
							{
								OFFSET 0.000000 30.592346 0.000000
							}
						}
						JOINT mixamorig:LeftEye
						{
							OFFSET 6.741500 18.382690 16.401899
							CHANNELS 3 Xrotation Yrotation Zrotation
							End Site
							{
								OFFSET 0.000000 30.592346 0.000000
							}
						}
					}
				}
				JOINT mixamorig:LeftShoulder
				{
					OFFSET 11.924900 18.230499 1.425400
					CHANNELS 3 Xrotation Yrotation Zrotation
					JOINT mixamorig:LeftArm
					{
						OFFSET 25.435989 -0.697632 -5.229300
						CHANNELS 3 Xrotation Yrotation Zrotation
						JOINT mixamorig:LeftForeArm
						{
							OFFSET 54.684776 0.000000 0.000000
							CHANNELS 3 Xrotation Yrotation Zrotation
							JOINT mixamorig:LeftHand
							{
								OFFSET 55.098175 0.000000 0.000000
								CHANNELS 3 Xrotation Yrotation Zrotation
								JOINT mixamorig:LeftHandMiddle1
								{
									OFFSET 23.369751 0.000000 0.000000
									CHANNELS 3 Xrotation Yrotation Zrotation
									JOINT mixamorig:LeftHandMiddle2
									{
										OFFSET 6.378677 0.000000 0.000000
										CHANNELS 3 Xrotation Yrotation Zrotation
										JOINT mixamorig:LeftHandMiddle3
										{
											OFFSET 6.148331 0.000000 0.000000
											CHANNELS 3 Xrotation Yrotation Zrotation
											JOINT mixamorig:LeftHandMiddle4
											{
												OFFSET 6.582504 0.000000 0.000000
												CHANNELS 3 Xrotation Yrotation Zrotation
												End Site
												{
													OFFSET -1.168900 6.395691 1.028606
												}
											}
										}
									}
								}
								JOINT mixamorig:LeftHandThumb1
								{
									OFFSET 7.235672 -3.848206 5.434273
									CHANNELS 3 Xrotation Yrotation Zrotation
									JOINT mixamorig:LeftHandThumb2
									{
										OFFSET 6.568451 -3.792297 3.792300
										CHANNELS 3 Xrotation Yrotation Zrotation
										JOINT mixamorig:LeftHandThumb3
										{
											OFFSET 6.063080 -3.500519 3.500518
											CHANNELS 3 Xrotation Yrotation Zrotation
											JOINT mixamorig:LeftHandThumb4
											{
												OFFSET 4.793182 -2.767334 2.767349
												CHANNELS 3 Xrotation Yrotation Zrotation
												End Site
												{
													OFFSET 0.101639 6.054260 1.275483
												}
											}
										}
									}
								}
								JOINT mixamorig:LeftHandIndex1
								{
									OFFSET 23.101074 -0.309540 4.992809
									CHANNELS 3 Xrotation Yrotation Zrotation
									JOINT mixamorig:LeftHandIndex2
									{
										OFFSET 6.226883 0.000000 0.000000
										CHANNELS 3 Xrotation Yrotation Zrotation
										JOINT mixamorig:LeftHandIndex3
										{
											OFFSET 6.094330 0.000000 0.000000
											CHANNELS 3 Xrotation Yrotation Zrotation
											JOINT mixamorig:LeftHandIndex4
											{
												OFFSET 5.482605 0.000000 0.000000
												CHANNELS 3 Xrotation Yrotation Zrotation
												End Site
												{
													OFFSET -1.427902 5.233032 0.797164
												}
											}
										}
									}
								}
								JOINT mixamorig:LeftHandRing1
								{
									OFFSET 22.299240 0.021149 -3.964172
									CHANNELS 3 Xrotation Yrotation Zrotation
									JOINT mixamorig:LeftHandRing2
									{
										OFFSET 6.321869 0.000000 0.000000
										CHANNELS 3 Xrotation Yrotation Zrotation
										JOINT mixamorig:LeftHandRing3
										{
											OFFSET 5.899796 0.000000 0.000000
											CHANNELS 3 Xrotation Yrotation Zrotation
											JOINT mixamorig:LeftHandRing4
											{
												OFFSET 6.517899 0.000000 0.000000
												CHANNELS 3 Xrotation Yrotation Zrotation
												End Site
												{
													OFFSET -1.637299 6.232208 0.980890
												}
											}
										}
									}
								}
								JOINT mixamorig:LeftHandPinky1
								{
									OFFSET 20.463791 -0.302338 -8.562233
									CHANNELS 3 Xrotation Yrotation Zrotation
									JOINT mixamorig:LeftHandPinky2
									{
										OFFSET 6.908646 0.000000 0.000000
										CHANNELS 3 Xrotation Yrotation Zrotation
										JOINT mixamorig:LeftHandPinky3
										{
											OFFSET 4.622849 0.000000 0.000000
											CHANNELS 3 Xrotation Yrotation Zrotation
											JOINT mixamorig:LeftHandPinky4
											{
												OFFSET 5.216080 0.000000 0.000000
												CHANNELS 3 Xrotation Yrotation Zrotation
												End Site
												{
													OFFSET -0.606308 5.116241 0.814926
												}
											}
										}
									}
								}
							}
						}
					}
				}
				JOINT mixamorig:RightShoulder
				{
					OFFSET -12.001300 18.284088 1.348900
					CHANNELS 3 Xrotation Yrotation Zrotation
					JOINT mixamorig:RightArm
					{
						OFFSET -25.308500 -0.751312 -5.164599
						CHANNELS 3 Xrotation Yrotation Zrotation
						JOINT mixamorig:RightForeArm
						{
							OFFSET -54.684429 0.000000 0.000000
							CHANNELS 3 Xrotation Yrotation Zrotation
							JOINT mixamorig:RightHand
							{
								OFFSET -55.150291 0.000000 0.000000
								CHANNELS 3 Xrotation Yrotation Zrotation
								JOINT mixamorig:RightHandMiddle1
								{
									OFFSET -23.317566 0.000000 0.000000
									CHANNELS 3 Xrotation Yrotation Zrotation
									JOINT mixamorig:RightHandMiddle2
									{
										OFFSET -6.378403 0.000000 0.000000
										CHANNELS 3 Xrotation Yrotation Zrotation
										JOINT mixamorig:RightHandMiddle3
										{
											OFFSET -6.148193 0.000000 0.000000
											CHANNELS 3 Xrotation Yrotation Zrotation
											JOINT mixamorig:RightHandMiddle4
											{
												OFFSET -6.583389 0.000000 0.000000
												CHANNELS 3 Xrotation Yrotation Zrotation
												End Site
												{
													OFFSET 1.171692 6.395905 1.029786
												}
											}
										}
									}
								}
								JOINT mixamorig:RightHandThumb1
								{
									OFFSET -7.190521 -3.860474 5.435846
									CHANNELS 3 Xrotation Yrotation Zrotation
									JOINT mixamorig:RightHandThumb2
									{
										OFFSET -6.567429 -3.791718 3.791708
										CHANNELS 3 Xrotation Yrotation Zrotation
										JOINT mixamorig:RightHandThumb3
										{
											OFFSET -6.062469 -3.500153 3.500166
											CHANNELS 3 Xrotation Yrotation Zrotation
											JOINT mixamorig:RightHandThumb4
											{
												OFFSET -4.792618 -2.767029 2.767022
												CHANNELS 3 Xrotation Yrotation Zrotation
												End Site
												{
													OFFSET -0.100327 6.053253 1.276754
												}
											}
										}
									}
								}
								JOINT mixamorig:RightHandIndex1
								{
									OFFSET -23.048981 -0.310791 4.992554
									CHANNELS 3 Xrotation Yrotation Zrotation
									JOINT mixamorig:RightHandIndex2
									{
										OFFSET -6.227539 0.000000 0.000000
										CHANNELS 3 Xrotation Yrotation Zrotation
										JOINT mixamorig:RightHandIndex3
										{
											OFFSET -6.095047 0.000000 0.000000
											CHANNELS 3 Xrotation Yrotation Zrotation
											JOINT mixamorig:RightHandIndex4
											{
												OFFSET -5.484772 0.000000 0.000000
												CHANNELS 3 Xrotation Yrotation Zrotation
												End Site
												{
													OFFSET 1.420593 5.237305 0.797056
												}
											}
										}
									}
								}
								JOINT mixamorig:RightHandRing1
								{
									OFFSET -22.246323 0.020569 -3.963762
									CHANNELS 3 Xrotation Yrotation Zrotation
									JOINT mixamorig:RightHandRing2
									{
										OFFSET -6.322128 0.000000 0.000000
										CHANNELS 3 Xrotation Yrotation Zrotation
										JOINT mixamorig:RightHandRing3
										{
											OFFSET -5.900024 0.000000 0.000000
											CHANNELS 3 Xrotation Yrotation Zrotation
											JOINT mixamorig:RightHandRing4
											{
												OFFSET -6.518356 0.000000 0.000000
												CHANNELS 3 Xrotation Yrotation Zrotation
												End Site
												{
													OFFSET 1.636398 6.232697 0.982186
												}
											}
										}
									}
								}
								JOINT mixamorig:RightHandPinky1
								{
									OFFSET -20.411011 -0.303314 -8.561701
									CHANNELS 3 Xrotation Yrotation Zrotation
									JOINT mixamorig:RightHandPinky2
									{
										OFFSET -6.907349 0.000000 0.000000
										CHANNELS 3 Xrotation Yrotation Zrotation
										JOINT mixamorig:RightHandPinky3
										{
											OFFSET -4.623840 0.000000 0.000000
											CHANNELS 3 Xrotation Yrotation Zrotation
											JOINT mixamorig:RightHandPinky4
											{
												OFFSET -5.218353 0.000000 0.000000
												CHANNELS 3 Xrotation Yrotation Zrotation
												End Site
												{
													OFFSET 0.602097 5.118835 0.816273
												}
											}
										}
									}
								}
							}
						}
					}
				}
			}
		}
	}
	JOINT mixamorig:LeftUpLeg
	{
		OFFSET 18.168400 -13.561905 -0.039000
		CHANNELS 3 Xrotation Yrotation Zrotation
		JOINT mixamorig:LeftLeg
		{
			OFFSET 0.577358 -80.825211 -3.695000
			CHANNELS 3 Xrotation Yrotation Zrotation
			JOINT mixamorig:LeftFoot
			{
				OFFSET -0.577356 -83.370262 -6.520700
				CHANNELS 3 Xrotation Yrotation Zrotation
				JOINT mixamorig:LeftToeBase
				{
					OFFSET 0.750401 -20.798306 25.135401
					CHANNELS 3 Xrotation Yrotation Zrotation
					JOINT mixamorig:LeftToe_End
					{
						OFFSET -0.000500 0.001200 19.917799
						CHANNELS 3 Xrotation Yrotation Zrotation
						End Site
						{
							OFFSET 0.000000 19.917805 0.000000
						}
					}
				}
			}
		}
	}
	JOINT mixamorig:RightUpLeg
	{
		OFFSET -18.162500 -13.585098 -0.041000
		CHANNELS 3 Xrotation Yrotation Zrotation
		JOINT mixamorig:RightLeg
		{
			OFFSET -0.595024 -80.945297 -3.631900
			CHANNELS 3 Xrotation Yrotation Zrotation
			JOINT mixamorig:RightFoot
			{
				OFFSET 0.595024 -83.218193 -6.561200
				CHANNELS 3 Xrotation Yrotation Zrotation
				JOINT mixamorig:RightToeBase
				{
					OFFSET -0.753601 -20.807106 25.115000
					CHANNELS 3 Xrotation Yrotation Zrotation
					JOINT mixamorig:RightToe_End
					{
						OFFSET 0.000299 0.001700 19.918200
						CHANNELS 3 Xrotation Yrotation Zrotation
						End Site
						{
							OFFSET 0.000000 19.918203 0.000000
						}
					}
				}
			}
		}
	}
}
MOTION
Frames: 4
Frame Time: 0.033333
0.146381 194.026077 -1.405590 -12.890481 -28.899893 -1.913992 6.126162 -4.799859 -1.009544 16.462865 -0.749480 -0.150422 16.461014 -0.794707 -0.155660 1.679920 7.143527 1.056818 -9.550745 20.714897 9.802691 -0.000001 -0.000000 0.000002 -0.000001 -0.000000 0.000002 -0.000001 -0.000000 0.000002 -37.475096 -5.364218 3.717032 -49.206909 -14.962716 -68.208352 0.000045 -48.225780 0.000037 -120.490903 6.482876 26.463843 0.005832 5.230407 -52.919213 3.349122 5.290850 -64.646026 0.269795 1.759005 -17.438407 0.000002 0.000001 -0.000000 4.785960 10.344283 4.999635 19.008647 -3.308493 8.390863 -4.599334 -9.958980 1.539060 0.000003 0.000002 -0.000001 -0.491695 3.561041 -36.774538 2.930614 5.072294 -60.014290 0.509343 2.391130 -24.046724 -0.000002 -0.000001 0.000001 -1.200792 5.053059 -60.431738 4.093657 5.581787 -72.492329 0.602923 2.590502 -26.199796 -0.000002 0.000006 -0.000000 -7.241281 4.419259 -72.838531 3.342790 5.287854 -64.577321 0.187122 1.470317 -14.505365 -0.000002 -0.000000 0.000002 -40.884116 -8.904008 -8.542472 -41.452930 57.834565 94.998198 -0.000664 98.916562 0.000692 -54.660037 -15.895930 -36.063853 3.932774 -7.462626 54.026400 6.484240 -4.284535 113.121333 0.248724 -1.503072 18.790243 0.000000 0.000000 -0.000001 8.735175 -5.259242 11.136020 22.440286 -19.588390 -17.995674 0.638242 -54.178942 -32.727254 0.000002 0.000000 -0.000002 -0.801006 0.955165 12.902232 0.747267 -2.532158 32.879335 0.615335 -2.315521 29.760196 0.000001 -0.000000 0.000000 -3.233813 -2.654083 56.848600 5.528034 -4.575195 100.789003 1.758276 -3.646519 51.473682 -0.000000 -0.000002 0.000002 -4.305488 -3.210369 64.954771 3.945875 -4.602652 81.205253 2.217177 -3.968024 58.376186 -0.000001 0.000000 0.000001 -8.115200 37.188061 15.418735 47.865894 0.443818 3.314300 -5.400281 6.703697 2.184598 -10.873827 0.817645 -8.422650 -0.000000 0.000003 -0.000001 -6.044584 9.194792 5.357838 33.776382 -4.584377 2.842674 -19.650299 -21.578446 -5.355120 -0.217441 0.000001 0.000002 -0.000000 0.000001 -0.000000 
0.584780 190.966461 -9.605024 -11.405883 -27.051531 -1.353061 5.972803 -5.433910 0.313560 16.363315 -1.016821 0.230039 16.373336 -1.027627 0.234669 1.016791 7.157432 1.111763 -10.647555 20.123404 9.517845 0.000000 -0.000000 -0.000001 0.000000 -0.000000 -0.000001 0.000000 -0.000000 -0.000001 -37.324641 -6.044351 4.333081 -51.742532 -14.201743 -68.597625 -0.000005 -44.567077 -0.000001 -117.710415 8.701976 22.732323 0.004626 5.234269 -52.992043 3.348616 5.290589 -64.640118 0.269605 1.758432 -17.432605 -0.000000 -0.000001 0.000000 4.800315 10.382377 5.034342 18.987579 -3.394496 8.426398 -4.597866 -9.945355 1.538788 -0.000001 0.000002 -0.000001 -0.467056 3.604310 -36.897286 2.931181 5.072620 -60.020724 0.509556 2.391626 -24.052115 -0.000000 0.000002 -0.000003 -1.183681 5.068123 -60.486557 4.095880 5.582485 -72.515149 0.603915 2.592510 -26.221789 -0.000001 0.000002 0.000001 -7.239757 4.435179 -72.908021 3.343760 5.288296 -64.587444 0.187377 1.471300 -14.515441 -0.000002 0.000003 -0.000001 -40.863687 -8.993321 -8.565446 -42.998472 58.746081 97.012066 0.000149 95.110821 -0.000141 -51.479812 -10.405745 -33.256563 3.943803 -7.471065 54.017074 6.484239 -4.284536 113.121320 0.248722 -1.503072 18.790241 0.000001 -0.000001 -0.000001 8.739534 -5.264166 11.143310 22.432541 -19.575927 -17.999434 0.637164 -54.184717 -32.729218 -0.000001 0.000000 -0.000004 -0.799281 0.950223 12.894153 0.747267 -2.532160 32.879332 0.615336 -2.315520 29.760207 -0.000000 0.000000 0.000002 -3.234764 -2.653467 56.848774 5.526778 -4.575431 100.773301 1.757281 -3.645698 51.457972 -0.000001 -0.000001 0.000001 -4.314032 -3.205477 64.948986 3.949032 -4.603142 81.244622 2.219851 -3.969669 58.414961 0.000001 -0.000001 0.000000 -5.215961 38.119706 15.262037 46.531859 -4.851144 2.355728 -6.364309 4.015141 1.014614 -19.097071 1.149159 -9.938467 0.000000 -0.000000 0.000000 -13.283114 8.251894 7.228591 39.393270 -2.136665 3.821428 -20.779343 -25.396306 -8.123948 -2.052144 -0.000018 -0.000001 -0.000000 -0.000001 -0.000000 
1.193510 185.229858 -20.017298 -9.457260 -24.019774 -1.312594 6.461516 -6.278183 1.509259 16.502738 -1.376566 0.536136 16.523903 -1.366495 0.555834 -0.266397 7.273083 1.230490 -12.872613 19.482399 9.505147 -0.000001 0.000000 -0.000004 -0.000001 0.000000 -0.000004 -0.000001 0.000000 -0.000004 -37.246958 -6.760883 4.885788 -56.696120 -14.214019 -69.492667 -0.000001 -37.529817 0.000000 -114.008363 11.863951 16.330629 0.002644 5.233784 -53.007602 3.349238 5.290898 -64.647064 0.269829 1.759115 -17.439529 -0.000000 0.000004 0.000002 4.808813 10.404362 5.053802 18.992217 -3.377041 8.419040 -4.597689 -9.943810 1.538378 -0.000001 -0.000002 0.000001 -0.460360 3.615391 -36.923040 2.931429 5.072749 -60.023641 0.509668 2.391877 -24.054702 0.000001 -0.000000 0.000000 -1.177818 5.073106 -60.503858 4.096484 5.582677 -72.521323 0.604187 2.593058 -26.227713 0.000001 0.000003 -0.000002 -7.240184 4.438969 -72.925745 3.344065 5.288462 -64.591084 0.187477 1.471669 -14.519008 -0.000002 -0.000001 -0.000000 -40.861088 -9.210887 -8.614868 -46.510241 59.351762 100.564290 0.008920 89.440658 -0.008873 -47.295956 -3.126937 -30.349539 3.945820 -7.472333 54.020506 6.484238 -4.284535 113.121327 0.248722 -1.503072 18.790243 0.000001 -0.000001 -0.000001 8.740529 -5.265166 11.146214 22.431098 -19.572804 -18.000260 0.637066 -54.186459 -32.729519 0.000002 -0.000000 -0.000002 -0.799077 0.947793 12.898940 0.747267 -2.532155 32.879332 0.615336 -2.315519 29.760200 -0.000000 -0.000002 0.000001 -3.234246 -2.654451 56.853620 5.526701 -4.575449 100.772160 1.757232 -3.645655 51.456845 -0.000000 0.000001 -0.000001 -4.314918 -3.205814 64.954102 3.949617 -4.603226 81.252012 2.220363 -3.969960 58.422289 -0.000001 -0.000001 0.000002 -7.957081 35.723030 18.200420 50.889639 -8.970671 0.614241 -15.141747 2.274145 -1.863549 -20.798519 0.031112 -1.659091 0.000000 -0.000001 -0.000000 -23.020441 5.162178 9.583385 47.286451 -0.009183 4.465054 -22.239540 -28.706691 -10.915965 -4.382964 -0.000007 -0.000004 -0.000000 -0.000004 -0.000001 
1.902401 178.187103 -31.646341 -7.301087 -20.226685 -1.646820 7.281136 -7.179947 1.942163 16.931861 -1.689734 0.634595 16.960468 -1.684732 0.673436 -1.936178 7.355336 1.486754 -15.653159 18.776815 9.804666 -0.000001 0.000000 0.000000 -0.000001 0.000000 0.000000 -0.000001 0.000000 0.000000 -37.253348 -7.878871 5.437754 -61.274378 -14.177022 -70.581420 0.000000 -31.764884 0.000005 -110.813057 14.001013 10.417574 0.002392 5.232526 -52.991234 3.349524 5.291028 -64.650329 0.269916 1.759425 -17.442695 0.000006 0.000002 -0.000001 4.806817 10.399003 5.048961 18.998472 -3.351674 8.408525 -4.598032 -9.947017 1.538343 0.000002 0.000002 -0.000003 -0.465411 3.606381 -36.895562 2.931341 5.072700 -60.022528 0.509642 2.391786 -24.053792 -0.000001 0.000000 0.000000 -1.181080 5.070224 -60.493087 4.095971 5.582524 -72.516248 0.603965 2.592621 -26.222833 0.000001 0.000001 0.000001 -7.240719 4.435499 -72.910835 3.343901 5.288388 -64.589213 0.187430 1.471479 -14.517198 -0.000002 0.000002 -0.000001 -40.882193 -9.556037 -8.733092 -48.444203 59.357561 102.410586 -0.000343 85.556958 0.000283 -43.423078 2.689435 -28.971805 3.943344 -7.470353 54.023726 6.484240 -4.284538 113.121320 0.248724 -1.503072 18.790243 0.000001 -0.000000 -0.000000 8.739554 -5.264034 11.144894 22.432634 -19.575139 -17.999543 0.637384 -54.185086 -32.729003 -0.000001 -0.000001 -0.000002 -0.799562 0.948653 12.902431 0.747268 -2.532159 32.879332 0.615337 -2.315521 29.760200 0.000001 0.000000 0.000002 -3.233816 -2.654903 56.854945 5.526982 -4.575382 100.775910 1.757453 -3.645861 51.460619 -0.000001 0.000001 0.000000 -4.312811 -3.207232 64.956977 3.949000 -4.603145 81.244322 2.219858 -3.969648 58.414742 0.000000 -0.000000 -0.000000 -13.259608 30.975263 21.022834 58.424482 -8.691645 -0.890794 -23.912076 2.780803 -5.297956 -24.117956 -0.000001 -0.000003 -0.000001 -0.000001 0.000000 -33.267574 0.632054 11.121691 54.775518 0.143159 4.548936 -22.184618 -30.076417 -11.903463 -5.431171 -0.000014 -0.000002 0.000001 -0.000001 0.000000 
